# xmcd
#
# Track frame offsets: 
#        150
#        18662
#        37525
#        65990
#        98247
#        119562
#        141760
#        188267
#        212210
#
# Disc length: 3714 seconds
#
# Revision: 9
# Processed by: cddbd v1.5.1PL2 Copyright (c) Steve Scherf et al.
# Submitted via: ExactAudioCopy v0.95b4
#
DISCID=7c0e8009
DTITLE=Ilse De Lange - Dear John,
DYEAR=1999
DGENRE=Country
TTITLE0=It'll Come To You
TTITLE1=Child Of The Wild Blue Yonder
TTITLE2=Angel Eyes
TTITLE3=Inside Job
TTITLE4=Riding With The King
TTITLE5=Sure Pinocchio
TTITLE6=Feels Like Rain
TTITLE7=Back Of My Mind
TTITLE8=Have A Little Faith In Me
EXTD=Live CD from Ilse DeLange's "Marlboro Flashback Tour" in which sh
EXTD=e covers\nJohn Hiatt songs. Recorded May 26, 1999 in Paradiso, Am
EXTD=sterdam, TheNether\nlands. YEAR: 1999 ID3G: 2
EXTT0=
EXTT1=
EXTT2=
EXTT3=
EXTT4=
EXTT5=
EXTT6=
EXTT7=
EXTT8=
PLAYORDER=
